<?xml version="1.0" encoding="UTF-8"?>
<svg xmlns="http://www.w3.org/2000/svg" viewBox="552 430 472 238" fill="none" overflow="visible">
  <defs>
    <style>
      .hub-mark { fill: #2ecfc2; }
      .hub-word { fill: #e6eaf0; }
    </style>
  </defs>
  <polygon class="hub-mark" points="601.74 466.87 572.6 466.87 572.6 609.73 601.74 609.73 601.74 549.07 633.11 579.43 665.76 579.43 601.74 517.46 601.74 466.87"/>
  <polygon class="hub-mark" points="672.72 466.87 672.72 528.12 644.63 500.93 611.98 500.93 672.72 559.72 672.72 609.73 701.86 609.73 701.86 466.87 672.72 466.87"/>
  <!-- UB: Inter Black 900, 196px, x=715 y=609.73, letter-spacing -0.03em; outlined with opentype.js (no network font). -->
  <path class="hub-word" d="M785.63 611.45L785.63 611.45Q767.25 611.45 753.42 604.99Q739.60 598.53 731.89 586.62Q724.19 574.70 724.19 558.43L724.19 558.43L724.19 467.13L762.85 467.13L762.85 555.18Q762.85 561.88 765.82 567.00Q768.79 572.12 773.91 575.04Q779.03 577.96 785.63 577.96L785.63 577.96Q792.33 577.96 797.50 575.04Q802.66 572.12 805.63 567.00Q808.60 561.88 808.60 555.18L808.60 555.18L808.60 467.13L847.26 467.13L847.26 558.43Q847.26 574.70 839.51 586.62Q831.76 598.53 817.88 604.99Q804.00 611.45 785.63 611.45ZM926.94 609.73L859.76 609.73L859.76 467.13L921.58 467.13Q937.85 467.13 948.95 471.53Q960.05 475.94 965.70 483.93Q971.35 491.92 971.35 502.73L971.35 502.73Q971.35 510.58 967.90 517.09Q964.46 523.60 958.28 527.95Q952.11 532.31 943.78 533.93L943.78 533.93L943.78 535.46Q952.97 535.75 960.48 540.01Q968.00 544.27 972.45 551.78Q976.90 559.29 976.90 569.34L976.90 569.34Q976.90 581.02 970.87 590.16Q964.84 599.30 953.64 604.51Q942.44 609.73 926.94 609.73L926.94 609.73ZM898.42 548.67L898.42 578.91L916.60 578.91Q926.27 578.91 931.20 575.18Q936.13 571.45 936.13 564.37L936.13 564.37Q936.13 559.29 933.83 555.80Q931.53 552.31 927.28 550.49Q923.02 548.67 917.18 548.67L917.18 548.67L898.42 548.67ZM898.42 497.57L898.42 524.75L914.31 524.75Q919.38 524.75 923.26 523.17Q927.13 521.59 929.33 518.57Q931.53 515.56 931.53 511.16L931.53 511.16Q931.53 504.65 926.80 501.11Q922.06 497.57 914.88 497.57L914.88 497.57L898.42 497.57Z"/>
</svg>
