<svg xmlns="http://www.w3.org/2000/svg" width="1200" height="675" viewBox="0 0 1200 675">
  <rect width="1200" height="675" fill="#111117"/>
  <rect x="20" y="20" width="200" height="635" rx="12" fill="#171A1E"/>
  <rect x="240" y="20" width="940" height="50" rx="8" fill="#171A1E"/>
  <rect x="240" y="90" width="460" height="280" rx="12" fill="#1E2228"/>
  <rect x="720" y="90" width="460" height="280" rx="12" fill="#1E2228"/>
  <rect x="240" y="390" width="300" height="265" rx="12" fill="#1E2228"/>
  <rect x="560" y="390" width="300" height="265" rx="12" fill="#1E2228"/>
  <rect x="880" y="390" width="300" height="265" rx="12" fill="#1E2228"/>
  <circle cx="120" cy="50" r="16" fill="#2ECFC2" opacity="0.3"/>
  <rect x="50" y="80" width="140" height="8" rx="4" fill="#2ECFC2" opacity="0.15"/>
  <rect x="50" y="100" width="100" height="6" rx="3" fill="#5A5F68"/>
  <rect x="50" y="120" width="120" height="6" rx="3" fill="#5A5F68"/>
  <rect x="50" y="140" width="90" height="6" rx="3" fill="#5A5F68"/>
  <text x="600" y="345" text-anchor="middle" fill="#5A5F68" font-family="sans-serif" font-size="14">Hub Platform Preview</text>
</svg>
