<svg xmlns="http://www.w3.org/2000/svg" viewBox="0 0 32 32" fill="none">
  <path d="M28.6 3 17.7 11l2-4.7L28.6 3Z" fill="#E17726" stroke="#E17726" stroke-linejoin="round" stroke-width=".25"/>
  <path d="M3.4 3 14.2 11.1 12.3 6.3 3.4 3Z" fill="#E27625" stroke="#E27625" stroke-linejoin="round" stroke-width=".25"/>
  <path d="m24.5 22.3-2.9 4.4 6.2 1.7 1.8-6.1h-5.1Zm-22 0 1.8 6 6.2-1.7-2.9-4.3H2.5Z" fill="#E27625" stroke="#E27625" stroke-linejoin="round" stroke-width=".25"/>
  <path d="M10.1 14.2 8.3 16.9l6.1.3-.2-6.6-4.1 3.6Zm11.8 0-4.2-3.7-.1 6.7 6.1-.3-1.8-2.7Z" fill="#E27625" stroke="#E27625" stroke-linejoin="round" stroke-width=".25"/>
  <path d="m10.5 26.7 3.7-1.8-3.2-2.5-.5 4.3Zm7.3-1.8 3.7 1.8-.5-4.3-3.2 2.5Z" fill="#E27625" stroke="#E27625" stroke-linejoin="round" stroke-width=".25"/>
  <path d="m21.5 26.7-3.7-1.8.3 2.4v1l3.4-1.6Zm-11 0 3.4 1.6v-1l.3-2.4-3.7 1.8Z" fill="#D5BFB2" stroke="#D5BFB2" stroke-linejoin="round" stroke-width=".25"/>
  <path d="m14 20.7-3.1-.9 2.2-1 .9 1.9Zm4 0 .9-1.9 2.2 1-3.1.9Z" fill="#233447" stroke="#233447" stroke-linejoin="round" stroke-width=".25"/>
  <path d="m10.5 26.7.5-4.4-3.4.1 2.9 4.3Zm10.5-4.4.5 4.4 2.9-4.3-3.4-.1Zm2.7-5.4-6.1.3.6 3.5.9-1.9 2.2 1 2.4-2.9Zm-12.8 2.9 2.2-1 .9 1.9.6-3.5-6.1-.3 2.4 2.9Z" fill="#CC6228" stroke="#CC6228" stroke-linejoin="round" stroke-width=".25"/>
  <path d="m8.3 16.9 2.6 5.5-.1-2.6-2.5-2.9Zm12.9 2.9-.1 2.6 2.6-5.5-2.5 2.9Zm-6.8-2.6-.6 3.5.7 3.7.2-4.9-.3-2.3Zm3.2 0-.3 2.3.2 4.9.7-3.7-.6-3.5Z" fill="#E27525" stroke="#E27525" stroke-linejoin="round" stroke-width=".25"/>
</svg>
