<svg xmlns="http://www.w3.org/2000/svg" viewBox="0 0 40 40" fill="none">
  <rect width="40" height="40" rx="10" fill="#3B99FC"/>
  <path d="M11.6 14.7c4.6-4.5 12.2-4.5 16.8 0l.6.5c.2.2.2.6 0 .8l-1.9 1.8c-.1.1-.3.1-.4 0l-.8-.7c-3.2-3.1-8.5-3.1-11.7 0l-.8.7c-.1.1-.3.1-.4 0l-1.9-1.8c-.2-.2-.2-.6 0-.8l.5-.5Zm20.7 3.9 1.7 1.6c.2.2.2.6 0 .8l-7.6 7.4c-.2.2-.6.2-.8 0l-5.4-5.2c-.1-.1-.3-.1-.4 0l-5.4 5.2c-.2.2-.6.2-.8 0L6 21c-.2-.2-.2-.6 0-.8l1.7-1.6c.2-.2.6-.2.8 0l5.4 5.2c.1.1.3.1.4 0l5.4-5.2c.2-.2.6-.2.8 0l5.4 5.2c.1.1.3.1.4 0l5.4-5.2c.2-.2.6-.2.8 0Z" fill="#fff"/>
</svg>
