<svg width="268" height="295" viewBox="0 0 268 295" fill="none" xmlns="http://www.w3.org/2000/svg">
<path fill-rule="evenodd" clip-rule="evenodd" d="M0.821408 -0.364865H0.456543V0V0.728636H1.18627V0.364865H1.53625V-0.364865H0.821408ZM4.3955 -0.364865H2.96587V0.364865H4.3955V-0.364865ZM7.25474 -0.364865H5.82512V0.364865H7.25474V-0.364865ZM10.114 -0.364865H8.68437V0.364865H10.114V-0.364865ZM12.9732 -0.364865H11.5436V0.364865H12.9732V-0.364865ZM15.8325 -0.364865H14.4029V0.364865H15.8325V-0.364865ZM18.6917 -0.364865H17.2621V0.364865H18.6917V-0.364865ZM21.551 -0.364865H20.1213V0.364865H21.551V-0.364865ZM24.4102 -0.364865H22.9806V0.364865H24.4102V-0.364865ZM27.2695 -0.364865H25.8398V0.364865H27.2695V-0.364865ZM30.1287 -0.364865H28.6991V0.364865H30.1287V-0.364865ZM32.9879 -0.364865H31.5583V0.364865H32.9879V-0.364865ZM35.8472 -0.364865H34.4176V0.364865H35.8472V-0.364865ZM38.7064 -0.364865H37.2768V0.364865H38.7064V-0.364865ZM41.5657 -0.364865H40.1361V0.364865H41.5657V-0.364865ZM44.4249 -0.364865H42.9953V0.364865H44.4249V-0.364865ZM47.2842 -0.364865H45.8546V0.364865H47.2842V-0.364865ZM50.1434 -0.364865H48.7138V0.364865H50.1434V-0.364865ZM53.0027 -0.364865H51.573V0.364865H53.0027V-0.364865ZM55.8619 -0.364865H54.4323V0.364865H55.8619V-0.364865ZM58.7212 -0.364865H57.2915V0.364865H58.7212V-0.364865ZM60.8656 -0.364865H60.1508V0.364865H60.5007V0.723924H61.2305V0V-0.364865H60.8656ZM61.2305 3.61955V2.17174H60.5007V3.61955H61.2305ZM0.456543 2.18591V3.64318H1.18627V2.18591H0.456543ZM61.2305 6.51518V5.06736H60.5007V6.51518H61.2305ZM0.456543 5.10045V6.55772H1.18627V5.10045H0.456543ZM61.2305 9.41081V7.963H60.5007V9.41081H61.2305ZM0.456543 8.01499V9.47226H1.18627V8.01499H0.456543ZM61.2305 12.3064V10.8586H60.5007V12.3064H61.2305ZM0.456543 10.9295V12.3868H1.18627V10.9295H0.456543ZM61.2305 15.2021V13.7543H60.5007V15.2021H61.2305ZM0.456543 13.8441V15.3014H1.18627V13.8441H0.456543ZM61.2305 18.0977V16.6499H60.5007V18.0977H61.2305ZM0.456543 16.7586V18.2159H1.18627V16.7586H0.456543ZM61.2305 20.9933V19.5455H60.5007V20.9933H61.2305ZM0.456543 19.6732V21.1304H1.18627V19.6732H0.456543ZM61.2305 23.889V22.4411H60.5007V23.889H61.2305ZM0.456543 22.5877V24.045H1.18627V22.5877H0.456543ZM61.2305 26.7846V25.3368H60.5007V26.7846H61.2305ZM0.456543 25.5023V26.9595H1.18627V25.5023H0.456543ZM61.2305 29.6802V28.2324H60.5007V29.6802H61.2305ZM0.456543 28.4168V29.8741H1.18627V28.4168H0.456543ZM61.2305 32.5759V31.128H60.5007V32.5759H61.2305ZM0.456543 31.3313V32.7886H1.18627V31.3313H0.456543ZM61.2305 35.4715V34.0237H60.5007V35.4715H61.2305ZM0.456543 34.2459V35.7032H1.18627V34.2459H0.456543ZM61.2305 38.3671V36.9193H60.5007V38.3671H61.2305ZM0.456543 37.1604V38.6177H1.18627V37.1604H0.456543ZM61.2305 41.2627V39.8149H60.5007V41.2627H61.2305ZM0.456543 40.075V41.5322H1.18627V40.075H0.456543ZM61.2305 44.1584V42.7106H60.5007V44.1584H61.2305ZM0.456543 42.9895V44.4468H1.18627V42.9895H0.456543ZM61.2305 47.054V45.6062H60.5007V47.054H61.2305ZM0.456543 45.9041V47.3613H1.18627V45.9041H0.456543ZM61.2305 49.9497V48.5018H60.5007V49.9497H61.2305ZM0.456543 48.8186V50.2759H1.18627V48.8186H0.456543ZM61.2305 52.8453V51.3975H60.5007V52.8453H61.2305ZM0.456543 51.7331V53.1904H1.18627V51.7331H0.456543ZM61.2305 55.7409V54.2931H60.5007V55.7409H61.2305ZM0.456543 54.6477V56.105H1.18627V54.6477H0.456543ZM61.2305 58.6366V57.1888H60.5007V58.6366H61.2305ZM0.456543 57.5622V59.0195H1.18627V57.5622H0.456543ZM61.2305 61.5322V60.0844H60.5007V61.5322H61.2305ZM0.456543 60.4768V61.934H1.18627V60.4768H0.456543ZM61.2305 64.4278V62.98H60.5007V64.4278H61.2305ZM0.456543 63.3913V64.8486H1.18627V63.3913H0.456543ZM61.2305 67.3235V65.8757H60.5007V67.3235H61.2305ZM0.456543 66.3059V67.7631H1.18627V66.3059H0.456543ZM61.2305 70.2191V68.7713H60.5007V70.2191H61.2305ZM0.456543 69.2204V70.6777H1.18627V69.2204H0.456543ZM61.2305 73.1148V71.6669H60.5007V73.1148H61.2305ZM0.456543 72.1349V73.5922H1.18627V72.1349H0.456543ZM61.2305 76.0104V74.5626H60.5007V76.0104H61.2305ZM0.456543 75.0495V76.5067H1.18627V75.0495H0.456543ZM61.2305 78.906V77.4582H60.5007V78.906H61.2305ZM0.456543 77.964V79.4213H1.18627V77.964H0.456543ZM61.2305 81.8017V80.3538H60.5007V81.8017H61.2305ZM0.456543 80.8785V82.3358H1.18627V80.8785H0.456543ZM61.2305 84.6973V83.2495H60.5007V84.6973H61.2305ZM0.456543 83.7931V85.2503H1.18627V83.7931H0.456543ZM61.2305 87.5929V86.1451H60.5007V87.5929H61.2305ZM0.456543 86.7076V88.1649H1.18627V86.7076H0.456543ZM61.2305 90.4886V89.0407H60.5007V90.4886H61.2305ZM0.456543 89.6221V91.0794H1.18627V89.6221H0.456543ZM61.2305 93.3842V91.9364H60.5007V93.3842H61.2305ZM0.456543 92.5367V93.9939H1.18627V92.5367H0.456543ZM61.2305 96.2798V94.832H60.5007V96.2798H61.2305ZM0.456543 95.4512V96.9085H1.18627V95.4512H0.456543ZM61.2305 99.1755V97.7276H60.5007V99.1755H61.2305ZM0.456543 98.3657V99.823H1.18627V98.3657H0.456543ZM61.2305 102.071V100.623H60.5007V102.071H61.2305ZM0.456543 101.28V102.738H1.18627V101.28H0.456543ZM61.2305 103.519V104.088L61.643 104.488L61.1355 105.012L60.6118 104.505L60.5007 104.397V104.243V103.519H61.2305ZM0.456543 104.195V105.652H1.18627V104.195H0.456543ZM63.7369 106.514L62.69 105.501L62.1824 106.025L63.2294 107.039L63.7369 106.514ZM0.456543 107.109V108.567H1.18627V107.109H0.456543ZM65.8308 108.541L64.7839 107.528L64.2763 108.052L65.3233 109.066L65.8308 108.541ZM67.9247 110.568L66.8777 109.555L66.3702 110.079L67.4172 111.092L67.9247 110.568ZM0.456543 110.024V111.481H1.18627V110.024H0.456543ZM70.0186 112.595L68.9716 111.581L68.4641 112.106L69.5111 113.119L70.0186 112.595ZM0.456543 112.938V114.396H1.18627V112.938H0.456543ZM72.1125 114.622L71.0655 113.608L70.558 114.133L71.6049 115.146L72.1125 114.622ZM74.2064 116.649L73.1594 115.635L72.6519 116.159L73.6988 117.173L74.2064 116.649ZM0.456543 115.853V117.31H1.18627V115.853H0.456543ZM76.3003 118.675L75.2533 117.662L74.7458 118.186L75.7927 119.2L76.3003 118.675ZM0.456543 118.767V120.225H1.18627V118.767H0.456543ZM78.3942 120.702L77.3472 119.689L76.8397 120.213L77.8866 121.227L78.3942 120.702ZM0.456543 121.682V123.139H1.18627V121.682H0.456543ZM80.488 122.729L79.4411 121.716L78.9336 122.24L79.9805 123.253L80.488 122.729ZM82.5819 124.756L81.535 123.743L81.0275 124.267L82.0744 125.28L82.5819 124.756ZM0.456543 124.597V126.054H1.18627V124.597H0.456543ZM84.6758 126.783L83.6289 125.769L83.1214 126.294L84.1683 127.307L84.6758 126.783ZM0.456543 127.511V128.968H1.18627V127.511H0.456543ZM86.7697 128.81L85.7228 127.796L85.2152 128.321L86.2622 129.334L86.7697 128.81ZM88.8636 130.836L87.8167 129.823L87.3091 130.347L88.3561 131.361L88.8636 130.836ZM0.456543 130.426V131.883H1.18627V130.426H0.456543ZM90.9575 132.863L89.9106 131.85L89.403 132.374L90.45 133.388L90.9575 132.863ZM0.456543 133.34V134.797H1.18627V133.34H0.456543ZM93.0514 134.89L92.0045 133.877L91.4969 134.401L92.5439 135.414L93.0514 134.89ZM95.1453 136.917L94.0983 135.904L93.5908 136.428L94.6378 137.441L95.1453 136.917ZM0.456543 136.255V137.712H1.18627V136.255H0.456543ZM97.2392 138.944L96.1922 137.93L95.6847 138.455L96.7317 139.468L97.2392 138.944ZM0.456543 139.169V140.627H1.18627V139.169H0.456543ZM99.3331 140.971L98.2861 139.957L97.7786 140.482L98.8255 141.495L99.3331 140.971ZM101.427 142.998L100.38 141.984L99.8725 142.508L100.919 143.522L101.427 142.998ZM0.456543 142.084V143.541H1.18627V142.084H0.456543ZM103.521 145.024L102.474 144.011L101.966 144.535L103.013 145.549L103.521 145.024ZM0.456543 144.998V146.456H1.18627V144.998H0.456543ZM105.615 147.051L104.568 146.038L104.06 146.562L105.107 147.576L105.615 147.051ZM0.456543 147.913V149.37H1.18627V147.913H0.456543ZM107.709 149.078L106.662 148.065L106.154 148.589L107.201 149.602L107.709 149.078ZM109.803 151.105L108.756 150.092L108.248 150.616L109.295 151.629L109.803 151.105ZM0.456543 150.828V152.285H1.18627V150.828H0.456543ZM111.896 153.132L110.85 152.118L110.342 152.643L111.389 153.656L111.896 153.132ZM0.456543 153.742V155.199H1.18627V153.742H0.456543ZM113.99 155.159L112.943 154.145L112.436 154.67L113.483 155.683L113.99 155.159ZM116.084 157.186L115.037 156.172L114.53 156.696L115.577 157.71L116.084 157.186ZM0.456543 156.657V158.114H1.18627V156.657H0.456543ZM118.178 159.212L117.131 158.199L116.624 158.723L117.671 159.737L118.178 159.212ZM0.456543 159.571V161.028H1.18627V159.571H0.456543ZM120.272 161.239L119.225 160.226L118.718 160.75L119.765 161.764L120.272 161.239ZM122.366 163.266L121.319 162.253L120.812 162.777L121.858 163.79L122.366 163.266ZM0.456543 162.486V163.943H1.18627V162.486H0.456543ZM124.46 165.293L123.413 164.279L122.905 164.804L123.952 165.817L124.46 165.293ZM0.456543 165.4V166.858H1.18627V165.4H0.456543ZM126.554 167.32L125.507 166.306L124.999 166.831L126.046 167.844L126.554 167.32ZM0.456543 168.315V169.772H1.18627V168.315H0.456543ZM128.648 169.347L127.601 168.333L127.093 168.858L128.14 169.871L128.648 169.347ZM61.1193 169.114L60.5007 168.516V169.376V170.103H61.0918L61.1331 170.143L61.1718 170.103H61.2305V170.043L61.6406 169.619L61.1193 169.114ZM130.742 171.373L129.695 170.36L129.187 170.884L130.234 171.898L130.742 171.373ZM62.1757 171.152L63.2183 172.161L63.7258 171.637L62.6832 170.628L62.1757 171.152ZM0.456543 171.229V172.687H1.18627V171.229H0.456543ZM61.2305 173.01V171.557H60.5007V173.01H61.2305ZM132.836 173.4L131.789 172.387L131.281 172.911L132.328 173.925L132.836 173.4ZM64.2608 173.17L65.3034 174.179L65.8109 173.655L64.7683 172.646L64.2608 173.17ZM0.456543 174.144V175.601H1.18627V174.144H0.456543ZM134.929 175.427L133.882 174.414L133.375 174.938L134.422 175.951L134.929 175.427ZM61.2305 175.917V174.463H60.5007V175.917H61.2305ZM66.346 175.188L67.3885 176.197L67.896 175.673L66.8535 174.664L66.346 175.188ZM137.023 177.454L135.976 176.441L135.469 176.965L136.516 177.978L137.023 177.454ZM68.4311 177.206L69.4737 178.215L69.9812 177.691L68.9386 176.682L68.4311 177.206ZM0.456543 177.058V178.516H1.18627V177.058H0.456543ZM61.2305 178.824V177.37H60.5007V178.824H61.2305ZM139.117 179.481L138.07 178.467L137.563 178.992L138.61 180.005L139.117 179.481ZM70.5162 179.224L71.5588 180.233L72.0663 179.709L71.0237 178.7L70.5162 179.224ZM0.456543 179.973V181.43H1.18627V179.973H0.456543ZM61.2305 181.73V180.277H60.5007V181.73H61.2305ZM141.211 181.508L140.164 180.494L139.657 181.019L140.704 182.032L141.211 181.508ZM72.6014 181.242L73.6439 182.251L74.1514 181.727L73.1089 180.718L72.6014 181.242ZM143.305 183.535L142.258 182.521L141.751 183.045L142.798 184.059L143.305 183.535ZM74.6865 183.26L75.7291 184.269L76.2366 183.745L75.194 182.736L74.6865 183.26ZM0.456543 182.888V184.345H1.18627V182.888H0.456543ZM61.2305 184.637V183.184H60.5007V184.637H61.2305ZM145.399 185.561L144.352 184.548L143.844 185.072L144.891 186.086L145.399 185.561ZM76.7716 185.278L77.8142 186.287L78.3217 185.763L77.2791 184.754L76.7716 185.278ZM0.456543 185.802V187.259H1.18627V185.802H0.456543ZM61.2305 187.544V186.091H60.5007V187.544H61.2305ZM147.493 187.588L146.446 186.575L145.938 187.099L146.985 188.113L147.493 187.588ZM78.8568 187.296L79.8993 188.305L80.4068 187.781L79.3643 186.772L78.8568 187.296ZM149.587 189.615L148.54 188.602L148.032 189.126L149.079 190.139L149.587 189.615ZM0.456543 188.717V190.174H1.18627V188.717H0.456543ZM80.9419 189.314L81.9845 190.323L82.492 189.799L81.4494 188.79L80.9419 189.314ZM61.2305 190.451V188.997H60.5007V190.451H61.2305ZM151.681 191.642L150.634 190.629L150.126 191.153L151.173 192.166L151.681 191.642ZM83.027 191.332L84.0696 192.341L84.5771 191.817L83.5345 190.808L83.027 191.332ZM0.456543 191.631V193.088H1.18627V191.631H0.456543ZM61.2305 193.358V191.904H60.5007V193.358H61.2305ZM153.775 193.669L152.728 192.655L152.22 193.18L153.267 194.193L153.775 193.669ZM85.1122 193.35L86.1547 194.359L86.6622 193.835L85.6197 192.826L85.1122 193.35ZM0.456543 194.546V196.003H1.18627V194.546H0.456543ZM155.868 195.696L154.822 194.682L154.314 195.207L155.361 196.22L155.868 195.696ZM61.2305 196.264V194.811H60.5007V196.264H61.2305ZM87.1973 195.368L88.2399 196.377L88.7474 195.853L87.7048 194.844L87.1973 195.368ZM157.962 197.723L156.915 196.709L156.408 197.233L157.455 198.247L157.962 197.723ZM89.2824 197.386L90.325 198.395L90.8325 197.871L89.7899 196.862L89.2824 197.386ZM0.456543 197.46V198.918H1.18627V197.46H0.456543ZM61.2305 199.171V197.718H60.5007V199.171H61.2305ZM160.056 199.749L159.009 198.736L158.502 199.26L159.549 200.274L160.056 199.749ZM91.3676 199.404L92.4101 200.413L92.9176 199.889L91.8751 198.88L91.3676 199.404ZM0.456543 200.375V201.832H1.18627V200.375H0.456543ZM61.2305 202.078V200.625H60.5007V202.078H61.2305ZM162.15 201.776L161.103 200.763L160.596 201.287L161.643 202.301L162.15 201.776ZM93.4527 201.422L94.4953 202.431L95.0028 201.907L93.9602 200.898L93.4527 201.422ZM164.244 203.803L163.197 202.79L162.69 203.314L163.737 204.327L164.244 203.803ZM95.5378 203.44L96.5804 204.449L97.0879 203.925L96.0453 202.916L95.5378 203.44ZM0.456543 203.289V204.747H1.18627V203.289H0.456543ZM61.2305 204.985V203.531H60.5007V204.985H61.2305ZM166.338 205.83L165.291 204.817L164.783 205.341L165.83 206.354L166.338 205.83ZM97.623 205.458L98.6656 206.467L99.173 205.943L98.1305 204.934L97.623 205.458ZM0.456543 206.204V207.661H1.18627V206.204H0.456543ZM61.2305 207.892V206.438H60.5007V207.892H61.2305ZM168.432 207.857L167.385 206.843L166.877 207.368L167.924 208.381L168.432 207.857ZM99.7081 207.476L100.751 208.485L101.258 207.961L100.216 206.952L99.7081 207.476ZM170.526 209.884L169.479 208.87L168.971 209.395L170.018 210.408L170.526 209.884ZM101.793 209.494L102.836 210.503L103.343 209.979L102.301 208.97L101.793 209.494ZM0.456543 209.119V210.576H1.18627V209.119H0.456543ZM61.2305 210.798V209.345H60.5007V210.798H61.2305ZM172.62 211.911L171.573 210.897L171.065 211.421L172.112 212.435L172.62 211.911ZM103.878 211.512L104.921 212.521L105.428 211.997L104.386 210.988L103.878 211.512ZM0.456543 212.033V213.49H1.18627V212.033H0.456543ZM61.2305 213.705V212.252H60.5007V213.705H61.2305ZM174.714 213.937L173.667 212.924L173.159 213.448L174.206 214.462L174.714 213.937ZM105.964 213.53L107.006 214.539L107.514 214.015L106.471 213.006L105.964 213.53ZM0.456543 214.948V216.405H1.18627V214.948H0.456543ZM176.807 215.964L175.761 214.951L175.253 215.475L176.3 216.489L176.807 215.964ZM108.049 215.548L109.091 216.557L109.599 216.033L108.556 215.024L108.049 215.548ZM61.2305 216.612V215.159H60.5007V216.612H61.2305ZM178.901 217.991L177.854 216.978L177.347 217.502L178.394 218.515L178.901 217.991ZM110.134 217.566L111.176 218.575L111.684 218.051L110.641 217.042L110.134 217.566ZM0.456543 217.862V219.319H1.18627V217.862H0.456543ZM61.2305 219.519V218.065H60.5007V219.519H61.2305ZM180.995 220.018L179.948 219.004L179.441 219.529L180.488 220.542L180.995 220.018ZM112.219 219.584L113.261 220.593L113.769 220.069L112.726 219.06L112.219 219.584ZM0.456543 220.777V222.234H1.18627V220.777H0.456543ZM61.2305 222.426V220.972H60.5007V222.426H61.2305ZM183.089 222.045L182.042 221.031L181.535 221.556L182.582 222.569L183.089 222.045ZM114.304 221.602L115.347 222.611L115.854 222.087L114.812 221.078L114.304 221.602ZM185.183 224.072L184.136 223.058L183.629 223.583L184.676 224.596L185.183 224.072ZM116.389 223.62L117.432 224.629L117.939 224.105L116.897 223.096L116.389 223.62ZM0.456543 223.691V225.149H1.18627V223.691H0.456543ZM61.2305 225.332V223.879H60.5007V225.332H61.2305ZM187.277 226.098L186.23 225.085L185.723 225.609L186.769 226.623L187.277 226.098ZM118.474 225.638L119.517 226.647L120.024 226.123L118.982 225.114L118.474 225.638ZM0.456543 226.606V228.063H1.18627V226.606H0.456543ZM61.2305 228.239V226.786H60.5007V228.239H61.2305ZM189.371 228.125L188.324 227.112L187.816 227.636L188.863 228.65L189.371 228.125ZM120.559 227.656L121.602 228.665L122.11 228.141L121.067 227.132L120.559 227.656ZM191.465 230.152L190.418 229.139L189.91 229.663L190.957 230.677L191.465 230.152ZM122.645 229.674L123.687 230.683L124.195 230.159L123.152 229.15L122.645 229.674ZM0.456543 229.52V230.978H1.18627V229.52H0.456543ZM61.2305 231.146V229.693H60.5007V231.146H61.2305ZM193.035 231.672L192.512 231.166L192.121 231.57H192.05V231.642L192.004 231.69L192.05 231.734V232.299H192.781H193.683L193.035 231.672ZM124.73 231.692L125.251 232.197L125.357 232.299H125.505H126.236V231.57H125.652L125.237 231.168L124.73 231.692ZM127.699 232.299H129.161V231.57H127.699V232.299ZM130.624 232.299H132.086V231.57H130.624V232.299ZM133.549 232.299H135.011V231.57H133.549V232.299ZM136.474 232.299H137.936V231.57H136.474V232.299ZM139.399 232.299H140.861V231.57H139.399V232.299ZM142.324 232.299H143.786V231.57H142.324V232.299ZM145.249 232.299H146.712V231.57H145.249V232.299ZM148.174 232.299H149.637V231.57H148.174V232.299ZM151.099 232.299H152.562V231.57H151.099V232.299ZM154.024 232.299H155.487V231.57H154.024V232.299ZM156.949 232.299H158.412V231.57H156.949V232.299ZM159.874 232.299H161.337V231.57H159.874V232.299ZM162.799 232.299H164.262V231.57H162.799V232.299ZM165.725 232.299H167.187V231.57H165.725V232.299ZM168.65 232.299H170.112V231.57H168.65V232.299ZM171.575 232.299H173.037V231.57H171.575V232.299ZM174.5 232.299H175.962V231.57H174.5V232.299ZM177.425 232.299H178.887V231.57H177.425V232.299ZM180.35 232.299H181.812V231.57H180.35V232.299ZM183.275 232.299H184.738V231.57H183.275V232.299ZM186.2 232.299H187.663V231.57H186.2V232.299ZM189.125 232.299H190.588V231.57H189.125V232.299ZM0.456543 232.435V233.892H1.18627V232.435H0.456543ZM61.2305 234.053V232.599H60.5007V234.053H61.2305ZM0.456543 235.349V236.807H1.18627V235.349H0.456543ZM61.2305 236.96V235.506H60.5007V236.96H61.2305ZM0.456543 238.264V239.721H1.18627V238.264H0.456543ZM61.2305 239.866V238.413H60.5007V239.866H61.2305ZM0.456543 241.179V242.636H1.18627V241.179H0.456543ZM61.2305 242.773V241.32H60.5007V242.773H61.2305ZM0.456543 244.093V245.55H1.18627V244.093H0.456543ZM61.2305 245.68V244.227H60.5007V245.68H61.2305ZM0.456543 247.008V248.465H1.18627V247.008H0.456543ZM61.2305 248.587V247.133H60.5007V248.587H61.2305ZM0.456543 249.922V251.38H1.18627V249.922H0.456543ZM61.2305 251.494V250.04H60.5007V251.494H61.2305ZM0.456543 252.837V254.294H1.18627V252.837H0.456543ZM61.2305 254.4V252.947H60.5007V254.4H61.2305ZM0.456543 255.751V257.209H1.18627V255.751H0.456543ZM61.2305 257.307V255.854H60.5007V257.307H61.2305ZM0.456543 258.666V260.123H1.18627V258.666H0.456543ZM61.2305 260.214V258.761H60.5007V260.214H61.2305ZM0.456543 261.58V263.038H1.18627V261.58H0.456543ZM61.2305 263.121V261.667H60.5007V263.121H61.2305ZM0.456543 264.495V265.952H1.18627V264.495H0.456543ZM61.2305 266.028V264.574H60.5007V266.028H61.2305ZM0.456543 267.41V268.867H1.18627V267.41H0.456543ZM61.2305 268.934V267.481H60.5007V268.934H61.2305ZM0.456543 270.324V271.781H1.18627V270.324H0.456543ZM61.2305 271.841V270.388H60.5007V271.841H61.2305ZM0.456543 273.239V274.696H1.18627V273.239H0.456543ZM61.2305 274.748V273.295H60.5007V274.748H61.2305ZM0.456543 276.153V277.61H1.18627V276.153H0.456543ZM61.2305 277.655V276.201H60.5007V277.655H61.2305ZM0.456543 279.068V280.525H1.18627V279.068H0.456543ZM61.2305 280.562V279.108H60.5007V280.562H61.2305ZM0.456543 281.982V283.44H1.18627V281.982H0.456543ZM61.2305 283.468V282.015H60.5007V283.468H61.2305ZM0.456543 284.897V286.354H1.18627V284.897H0.456543ZM61.2305 286.375V284.922H60.5007V286.375H61.2305ZM0.456543 287.811V289.269H1.18627V287.811H0.456543ZM61.2305 289.282V287.829H60.5007V289.282H61.2305ZM0.456543 290.726V292.183H1.18627V290.726H0.456543ZM61.2305 292.189V290.735H60.5007V292.189H61.2305ZM0.456543 293.64V294.369V294.734H0.821408H1.53622V294.004H1.18627V293.64H0.456543ZM61.2305 294.369V293.642H60.5007V294.004H60.1508V294.734H60.8656H61.2305V294.369ZM2.96584 294.734H4.39547V294.004H2.96584V294.734ZM5.82509 294.734H7.25471V294.004H5.82509V294.734ZM8.68434 294.734H10.114V294.004H8.68434V294.734ZM11.5436 294.734H12.9732V294.004H11.5436V294.734ZM14.4028 294.734H15.8325V294.004H14.4028V294.734ZM17.2621 294.734H18.6917V294.004H17.2621V294.734ZM20.1213 294.734H21.5509V294.004H20.1213V294.734ZM22.9806 294.734H24.4102V294.004H22.9806V294.734ZM25.8398 294.734H27.2694V294.004H25.8398V294.734ZM28.6991 294.734H30.1287V294.004H28.6991V294.734ZM31.5583 294.734H32.9879V294.004H31.5583V294.734ZM34.4175 294.734H35.8472V294.004H34.4175V294.734ZM37.2768 294.734H38.7064V294.004H37.2768V294.734ZM40.136 294.734H41.5657V294.004H40.136V294.734ZM42.9953 294.734H44.4249V294.004H42.9953V294.734ZM45.8545 294.734H47.2842V294.004H45.8545V294.734ZM48.7138 294.734H50.1434V294.004H48.7138V294.734ZM51.573 294.734H53.0026V294.004H51.573V294.734ZM54.4323 294.734H55.8619V294.004H54.4323V294.734ZM57.2915 294.734H58.7211V294.004H57.2915V294.734ZM207.122 -0.364865H206.757V0V0.733768H207.487V0.364865H207.837V-0.364865H207.122ZM210.696 -0.364865H209.267V0.364865H210.696V-0.364865ZM213.556 -0.364865H212.126V0.364865H213.556V-0.364865ZM216.415 -0.364865H214.985V0.364865H216.415V-0.364865ZM219.274 -0.364865H217.844V0.364865H219.274V-0.364865ZM222.133 -0.364865H220.704V0.364865H222.133V-0.364865ZM224.992 -0.364865H223.563V0.364865H224.992V-0.364865ZM227.852 -0.364865H226.422V0.364865H227.852V-0.364865ZM230.711 -0.364865H229.281V0.364865H230.711V-0.364865ZM233.57 -0.364865H232.141V0.364865H233.57V-0.364865ZM236.429 -0.364865H235V0.364865H236.429V-0.364865ZM239.289 -0.364865H237.859V0.364865H239.289V-0.364865ZM242.148 -0.364865H240.718V0.364865H242.148V-0.364865ZM245.007 -0.364865H243.578V0.364865H245.007V-0.364865ZM247.866 -0.364865H246.437V0.364865H247.866V-0.364865ZM250.726 -0.364865H249.296V0.364865H250.726V-0.364865ZM253.585 -0.364865H252.155V0.364865H253.585V-0.364865ZM256.444 -0.364865H255.015V0.364865H256.444V-0.364865ZM259.303 -0.364865H257.874V0.364865H259.303V-0.364865ZM262.163 -0.364865H260.733V0.364865H262.163V-0.364865ZM265.022 -0.364865H263.592V0.364865H265.022V-0.364865ZM267.166 -0.364865H266.452V0.364865H266.802V0.728359H267.531V0V-0.364865H267.166ZM267.531 3.64292V2.18564H266.802V3.64292H267.531ZM206.757 2.2013V3.66884H207.487V2.2013H206.757ZM267.531 6.55746V5.10018H266.802V6.55746H267.531ZM206.757 5.13638V6.60391H207.487V5.13638H206.757ZM267.531 9.47202V8.01474H266.802V9.47202H267.531ZM206.757 8.07145V9.53899H207.487V8.07145H206.757ZM267.531 12.3866V10.9293H266.802V12.3866H267.531ZM206.757 11.0065V12.4741H207.487V11.0065H206.757ZM267.531 15.3011V13.8438H266.802V15.3011H267.531ZM206.757 13.9416V15.4091H207.487V13.9416H206.757ZM267.531 18.2157V16.7584H266.802V18.2157H267.531ZM206.757 16.8767V18.3442H207.487V16.8767H206.757ZM267.531 21.1302V19.6729H266.802V21.1302H267.531ZM206.757 19.8117V21.2793H207.487V19.8117H206.757ZM267.531 24.0448V22.5875H266.802V24.0448H267.531ZM206.757 22.7468V24.2144H207.487V22.7468H206.757ZM267.531 26.9593V25.502H266.802V26.9593H267.531ZM206.757 25.6819V27.1494H207.487V25.6819H206.757ZM267.531 29.8739V28.4166H266.802V29.8739H267.531ZM206.757 28.617V30.0845H207.487V28.617H206.757ZM267.531 32.7884V31.3311H266.802V32.7884H267.531ZM206.757 31.552V33.0196H207.487V31.552H206.757ZM267.531 35.703V34.2457H266.802V35.703H267.531ZM206.757 34.4871V35.9547H207.487V34.4871H206.757ZM267.531 38.6175V37.1603H266.802V38.6175H267.531ZM206.757 37.4222V38.8897H207.487V37.4222H206.757ZM267.531 41.5321V40.0748H266.802V41.5321H267.531ZM206.757 40.3573V41.8248H207.487V40.3573H206.757ZM267.531 44.4466V42.9893H266.802V44.4466H267.531ZM206.757 43.2923V44.7599H207.487V43.2923H206.757ZM267.531 47.3612V45.9039H266.802V47.3612H267.531ZM206.757 46.2274V47.6949H207.487V46.2274H206.757ZM267.531 50.2757V48.8184H266.802V50.2757H267.531ZM206.757 49.1625V50.63H207.487V49.1625H206.757ZM267.531 53.1903V51.733H266.802V53.1903H267.531ZM206.757 52.0976V53.5651H207.487V52.0976H206.757ZM267.531 56.1048V54.6475H266.802V56.1048H267.531ZM206.757 55.0326V56.5002H207.487V55.0326H206.757ZM267.531 59.0194V57.5621H266.802V59.0194H267.531ZM206.757 57.9677V59.4352H207.487V57.9677H206.757ZM267.531 61.9339V60.4766H266.802V61.9339H267.531ZM206.757 60.9028V62.3703H207.487V60.9028H206.757ZM267.531 64.8485V63.3912H266.802V64.8485H267.531ZM206.757 63.8379V65.3054H207.487V63.8379H206.757ZM267.531 67.763V66.3057H266.802V67.763H267.531ZM206.757 66.7729V68.2405H207.487V66.7729H206.757ZM267.531 70.6776V69.2203H266.802V70.6776H267.531ZM206.757 69.708V71.1755H207.487V69.708H206.757ZM81.965 69.8172H81.0634L81.7112 70.4442L82.2327 70.9489L82.6218 70.5469H82.6963V70.47L82.7402 70.4246L82.6963 70.382V69.8172H81.965ZM85.6213 69.8172H84.1588V70.5469H85.6213V69.8172ZM88.5464 69.8172H87.0839V70.5469H88.5464V69.8172ZM91.4715 69.8172H90.0089V70.5469H91.4715V69.8172ZM94.3965 69.8172H92.934V70.5469H94.3965V69.8172ZM97.3216 69.8172H95.8591V70.5469H97.3216V69.8172ZM100.247 69.8172H98.7841V70.5469H100.247V69.8172ZM103.172 69.8172H101.709V70.5469H103.172V69.8172ZM106.097 69.8172H104.634V70.5469H106.097V69.8172ZM109.022 69.8172H107.559V70.5469H109.022V69.8172ZM111.947 69.8172H110.484V70.5469H111.947V69.8172ZM114.872 69.8172H113.41V70.5469H114.872V69.8172ZM117.797 69.8172H116.335V70.5469H117.797V69.8172ZM120.722 69.8172H119.26V70.5469H120.722V69.8172ZM123.647 69.8172H122.185V70.5469H123.647V69.8172ZM126.572 69.8172H125.11V70.5469H126.572V69.8172ZM129.497 69.8172H128.035V70.5469H129.497V69.8172ZM132.422 69.8172H130.96V70.5469H132.422V69.8172ZM135.348 69.8172H133.885V70.5469H135.348V69.8172ZM138.273 69.8172H136.81V70.5469H138.273V69.8172ZM141.198 69.8172H139.735V70.5469H141.198V69.8172ZM144.123 69.8172H142.66V70.5469H144.123V69.8172ZM147.048 69.8172H145.585V70.5469H147.048V69.8172ZM149.242 69.8172H148.51V70.5469H149.094L149.505 70.9444L150.012 70.4201L149.495 69.9199L149.389 69.8172H149.242ZM152.079 72.421L151.046 71.4206L150.538 71.9449L151.572 72.9453L152.079 72.421ZM83.2757 71.9584L84.3186 72.9679L84.8262 72.4436L83.7832 71.4341L83.2757 71.9584ZM267.531 73.5921V72.1348H266.802V73.5921H267.531ZM206.757 72.6431V74.1106H207.487V72.6431H206.757ZM154.147 74.4219L153.113 73.4215L152.605 73.9458L153.639 74.9463L154.147 74.4219ZM85.3616 73.9774L86.4046 74.9869L86.9121 74.4626L85.8691 73.4531L85.3616 73.9774ZM267.531 76.5067V75.0494H266.802V76.5067H267.531ZM156.214 76.4229L155.18 75.4224L154.673 75.9467L155.706 76.9472L156.214 76.4229ZM87.4476 75.9964L88.4906 77.0059L88.9981 76.4816L87.9551 75.4721L87.4476 75.9964ZM206.757 75.5782V77.0457H207.487V75.5782H206.757ZM158.281 78.4238L157.247 77.4233L156.74 77.9477L157.773 78.9481L158.281 78.4238ZM89.5335 78.0154L90.5765 79.0249L91.084 78.5005L90.041 77.491L89.5335 78.0154ZM267.531 79.4212V77.9639H266.802V79.4212H267.531ZM206.757 78.5132V79.9808H207.487V78.5132H206.757ZM160.348 80.4247L159.314 79.4243L158.807 79.9486L159.84 80.9491L160.348 80.4247ZM91.6195 80.0344L92.6625 81.0439L93.17 80.5195L92.127 79.51L91.6195 80.0344ZM267.531 82.3358V80.8785H266.802V82.3358H267.531ZM162.415 82.4257L161.382 81.4252L160.874 81.9495L161.908 82.95L162.415 82.4257ZM206.757 81.4483V82.9158H207.487V81.4483H206.757ZM93.7054 82.0534L94.7484 83.0629L95.2559 82.5385L94.213 81.529L93.7054 82.0534ZM164.482 84.4266L163.449 83.4261L162.941 83.9505L163.975 84.9509L164.482 84.4266ZM95.7914 84.0723L96.8344 85.0818L97.3419 84.5575L96.2989 83.548L95.7914 84.0723ZM267.531 85.2503V83.793H266.802V85.2503H267.531ZM206.757 84.3834V85.8509H207.487V84.3834H206.757ZM166.549 86.4275L165.516 85.4271L165.008 85.9514L166.042 86.9519L166.549 86.4275ZM97.8773 86.0913L98.9203 87.1008L99.4278 86.5765L98.3849 85.567L97.8773 86.0913ZM267.531 88.1649V86.7076H266.802V88.1649H267.531ZM206.757 87.3184V88.786H207.487V87.3184H206.757ZM168.617 88.4285L167.583 87.428L167.076 87.9523L168.109 88.9528L168.617 88.4285ZM99.9633 88.1103L101.006 89.1198L101.514 88.5955L100.471 87.586L99.9633 88.1103ZM170.684 90.4294L169.65 89.4289L169.143 89.9533L170.176 90.9537L170.684 90.4294ZM102.049 90.1293L103.092 91.1388L103.6 90.6145L102.557 89.605L102.049 90.1293ZM267.531 91.0794V89.6221H266.802V91.0794H267.531ZM206.757 90.2535V91.7211H207.487V90.2535H206.757ZM172.751 92.4303L171.717 91.4299L171.21 91.9542L172.243 92.9547L172.751 92.4303ZM104.135 92.1483L105.178 93.1578L105.686 92.6334L104.643 91.6239L104.135 92.1483ZM267.531 93.994V92.5367H266.802V93.994H267.531ZM206.757 93.1886V94.6561H207.487V93.1886H206.757ZM174.818 94.4313L173.785 93.4308L173.277 93.9551L174.311 94.9556L174.818 94.4313ZM106.221 94.1673L107.264 95.1768L107.772 94.6524L106.729 93.6429L106.221 94.1673ZM176.885 96.4322L175.852 95.4317L175.344 95.9561L176.378 96.9565L176.885 96.4322ZM267.531 96.9085V95.4513H266.802V96.9085H267.531ZM108.307 96.1863L109.35 97.1958L109.858 96.6714L108.815 95.6619L108.307 96.1863ZM206.757 96.1237V97.5912H207.487V96.1237H206.757ZM178.952 98.4331L177.919 97.4327L177.411 97.957L178.445 98.9575L178.952 98.4331ZM110.393 98.2052L111.436 99.2147L111.944 98.6904L110.901 97.6809L110.393 98.2052ZM267.531 99.8231V98.3658H266.802V99.8231H267.531ZM206.757 99.0587V100.526H207.487V99.0587H206.757ZM181.02 100.434L179.986 99.4336L179.479 99.9579L180.512 100.958L181.02 100.434ZM112.479 100.224L113.522 101.234L114.03 100.709L112.987 99.6999L112.479 100.224ZM267.531 102.738V101.28H266.802V102.738H267.531ZM183.087 102.435L182.053 101.435L181.546 101.959L182.579 102.959L183.087 102.435ZM114.565 102.243L115.608 103.253L116.115 102.728L115.072 101.719L114.565 102.243ZM206.757 101.994V103.461H207.487V101.994H206.757ZM185.154 104.436L184.12 103.435L183.613 103.96L184.646 104.96L185.154 104.436ZM116.651 104.262L117.694 105.272L118.201 104.747L117.158 103.738L116.651 104.262ZM267.531 105.652V104.195H266.802V105.652H267.531ZM206.757 104.929V106.396H207.487V104.929H206.757ZM187.221 106.437L186.188 105.436L185.68 105.961L186.714 106.961L187.221 106.437ZM118.737 106.281L119.78 107.291L120.287 106.766L119.244 105.757L118.737 106.281ZM267.531 108.567V107.109H266.802V108.567H267.531ZM189.288 108.438L188.255 107.437L187.747 107.962L188.781 108.962L189.288 108.438ZM120.823 108.3L121.866 109.31L122.373 108.785L121.33 107.776L120.823 108.3ZM206.757 107.864V109.332H207.487V107.864H206.757ZM191.355 110.439L190.322 109.438L189.814 109.963L190.848 110.963L191.355 110.439ZM122.909 110.319L123.952 111.329L124.459 110.804L123.416 109.795L122.909 110.319ZM267.531 111.481V110.024H266.802V111.481H267.531ZM206.757 110.799V112.267H207.487V110.799H206.757ZM193.423 112.44L192.389 111.439L191.882 111.964L192.915 112.964L193.423 112.44ZM124.995 112.338L126.038 113.348L126.545 112.823L125.502 111.814L124.995 112.338ZM267.531 114.396V112.939H266.802V114.396H267.531ZM195.49 114.441L194.456 113.44L193.949 113.964L194.982 114.965L195.49 114.441ZM206.757 113.734V115.202H207.487V113.734H206.757ZM127.081 114.357L128.124 115.367L128.631 114.842L127.588 113.833L127.081 114.357ZM197.557 116.442L196.523 115.441L196.016 115.965L197.049 116.966L197.557 116.442ZM129.167 116.376L130.21 117.386L130.717 116.861L129.674 115.852L129.167 116.376ZM267.531 117.31V115.853H266.802V117.31H267.531ZM206.757 116.669V118.137H207.487V116.669H206.757ZM199.624 118.442L198.591 117.442L198.083 117.966L199.117 118.967L199.624 118.442ZM131.253 118.395L132.296 119.405L132.803 118.88L131.76 117.871L131.253 118.395ZM267.531 120.225V118.768H266.802V120.225H267.531ZM201.691 120.443L200.658 119.443L200.15 119.967L201.184 120.968L201.691 120.443ZM206.757 119.604V121.072H207.487V119.604H206.757ZM133.339 120.414L134.382 121.424L134.889 120.899L133.846 119.89L133.339 120.414ZM203.758 122.444L202.725 121.444L202.217 121.968L203.251 122.969L203.758 122.444ZM267.531 123.139V121.682H266.802V123.139H267.531ZM135.424 122.433L136.467 123.443L136.975 122.918L135.932 121.909L135.424 122.433ZM206.757 122.539V124.007H207.487V122.539H206.757ZM205.826 124.445L204.792 123.445L204.284 123.969L205.318 124.97L205.826 124.445ZM137.51 124.452L138.553 125.462L139.061 124.937L138.018 123.928L137.51 124.452ZM267.531 126.054V124.597H266.802V126.054H267.531ZM206.352 125.97L206.757 125.551V125.474H206.831L206.859 125.446L206.889 125.474H207.487V126.208V127.069L206.868 126.47L206.352 125.97ZM139.596 126.471L140.639 127.481L141.147 126.956L140.104 125.947L139.596 126.471ZM267.531 128.969V127.511H266.802V128.969H267.531ZM141.682 128.49L142.725 129.5L143.233 128.975L142.19 127.966L141.682 128.49ZM143.768 130.509L144.811 131.518L145.319 130.994L144.276 129.985L143.768 130.509ZM267.531 131.883V130.426H266.802V131.883H267.531ZM145.854 132.528L146.897 133.537L147.405 133.013L146.362 132.004L145.854 132.528ZM267.531 134.798V133.34H266.802V134.798H267.531ZM147.94 134.547L148.983 135.556L149.491 135.032L148.448 134.023L147.94 134.547ZM150.026 136.566L151.069 137.575L151.577 137.051L150.534 136.042L150.026 136.566ZM267.531 137.712V136.255H266.802V137.712H267.531ZM152.112 138.585L153.155 139.594L153.663 139.07L152.62 138.061L152.112 138.585ZM267.531 140.627V139.17H266.802V140.627H267.531ZM154.198 140.604L155.241 141.613L155.749 141.089L154.706 140.08L154.198 140.604ZM267.531 143.541V142.084H266.802V143.541H267.531ZM156.284 142.623L157.327 143.632L157.835 143.108L156.792 142.099L156.284 142.623ZM158.37 144.642L159.413 145.651L159.92 145.127L158.877 144.118L158.37 144.642ZM267.531 146.456V144.999H266.802V146.456H267.531ZM160.456 146.661L161.499 147.67L162.006 147.146L160.963 146.137L160.456 146.661ZM267.531 149.37V147.913H266.802V149.37H267.531ZM162.542 148.68L163.585 149.689L164.092 149.165L163.049 148.156L162.542 148.68ZM164.628 150.699L165.671 151.708L166.178 151.184L165.135 150.175L164.628 150.699ZM267.531 152.285V150.828H266.802V152.285H267.531ZM166.714 152.718L167.757 153.727L168.264 153.203L167.221 152.193L166.714 152.718ZM267.531 155.2V153.742H266.802V155.2H267.531ZM168.8 154.737L169.843 155.746L170.35 155.222L169.307 154.212L168.8 154.737ZM170.886 156.756L171.929 157.765L172.436 157.241L171.393 156.231L170.886 156.756ZM267.531 158.114V156.657H266.802V158.114H267.531ZM172.972 158.775L174.015 159.784L174.522 159.26L173.479 158.25L172.972 158.775ZM267.531 161.029V159.571H266.802V161.029H267.531ZM175.058 160.794L176.101 161.803L176.608 161.279L175.565 160.269L175.058 160.794ZM177.144 162.813L178.187 163.822L178.694 163.298L177.651 162.288L177.144 162.813ZM267.531 163.943V162.486H266.802V163.943H267.531ZM179.229 164.832L180.272 165.841L180.78 165.317L179.737 164.307L179.229 164.832ZM267.531 166.858V165.4H266.802V166.858H267.531ZM181.315 166.851L182.358 167.86L182.866 167.336L181.823 166.326L181.315 166.851ZM267.531 169.772V168.315H266.802V169.772H267.531ZM183.401 168.87L184.444 169.879L184.952 169.355L183.909 168.345L183.401 168.87ZM185.487 170.889L186.53 171.898L187.038 171.374L185.995 170.364L185.487 170.889ZM267.531 172.687V171.23H266.802V172.687H267.531ZM187.573 172.908L188.616 173.917L189.124 173.393L188.081 172.383L187.573 172.908ZM267.531 175.601V174.144H266.802V175.601H267.531ZM189.659 174.927L190.702 175.936L191.21 175.412L190.167 174.402L189.659 174.927ZM191.745 176.946L192.788 177.955L193.296 177.431L192.253 176.421L191.745 176.946ZM267.531 178.516V177.059H266.802V178.516H267.531ZM193.831 178.965L194.874 179.974L195.382 179.45L194.339 178.44L193.831 178.965ZM267.531 181.43V179.973H266.802V181.43H267.531ZM195.917 180.984L196.96 181.993L197.468 181.469L196.425 180.459L195.917 180.984ZM198.003 183.003L199.046 184.012L199.554 183.488L198.511 182.478L198.003 183.003ZM267.531 184.345V182.888H266.802V184.345H267.531ZM200.089 185.022L201.132 186.031L201.64 185.507L200.597 184.497L200.089 185.022ZM267.531 187.259V185.802H266.802V187.259H267.531ZM202.175 187.041L203.218 188.05L203.725 187.526L202.682 186.516L202.175 187.041ZM204.261 189.06L205.304 190.069L205.811 189.545L204.768 188.535L204.261 189.06ZM267.531 190.174V188.717H266.802V190.174H267.531ZM206.347 191.079L206.757 191.476V192.057H207.487V191.321V191.167L207.376 191.059L206.854 190.554L206.347 191.079ZM267.531 193.089V191.631H266.802V193.089H267.531ZM206.757 193.529V195.001H207.487V193.529H206.757ZM267.531 196.003V194.546H266.802V196.003H267.531ZM206.757 196.474V197.946H207.487V196.474H206.757ZM267.531 198.918V197.46H266.802V198.918H267.531ZM206.757 199.418V200.89H207.487V199.418H206.757ZM267.531 201.832V200.375H266.802V201.832H267.531ZM206.757 202.362V203.834H207.487V202.362H206.757ZM267.531 204.747V203.289H266.802V204.747H267.531ZM206.757 205.306V206.778H207.487V205.306H206.757ZM267.531 207.661V206.204H266.802V207.661H267.531ZM206.757 208.25V209.723H207.487V208.25H206.757ZM267.531 210.576V209.119H266.802V210.576H267.531ZM206.757 211.195V212.667H207.487V211.195H206.757ZM267.531 213.49V212.033H266.802V213.49H267.531ZM206.757 214.139V215.611H207.487V214.139H206.757ZM267.531 216.405V214.948H266.802V216.405H267.531ZM206.757 217.083V218.555H207.487V217.083H206.757ZM267.531 219.319V217.862H266.802V219.319H267.531ZM206.757 220.027V221.499H207.487V220.027H206.757ZM267.531 222.234V220.777H266.802V222.234H267.531ZM206.757 222.972V224.444H207.487V222.972H206.757ZM267.531 225.148V223.691H266.802V225.148H267.531ZM206.757 225.916V227.388H207.487V225.916H206.757ZM267.531 228.063V226.606H266.802V228.063H267.531ZM206.757 228.86V230.332H207.487V228.86H206.757ZM267.531 230.978V229.52H266.802V230.978H267.531ZM206.757 231.804V233.276H207.487V231.804H206.757ZM267.531 233.892V232.435H266.802V233.892H267.531ZM206.757 234.748V236.221H207.487V234.748H206.757ZM267.531 236.807V235.349H266.802V236.807H267.531ZM206.757 237.693V239.165H207.487V237.693H206.757ZM267.531 239.721V238.264H266.802V239.721H267.531ZM206.757 240.637V242.109H207.487V240.637H206.757ZM267.531 242.636V241.178H266.802V242.636H267.531ZM206.757 243.581V245.053H207.487V243.581H206.757ZM267.531 245.55V244.093H266.802V245.55H267.531ZM206.757 246.525V247.997H207.487V246.525H206.757ZM267.531 248.465V247.008H266.802V248.465H267.531ZM206.757 249.47V250.942H207.487V249.47H206.757ZM267.531 251.379V249.922H266.802V251.379H267.531ZM206.757 252.414V253.886H207.487V252.414H206.757ZM267.531 254.294V252.837H266.802V254.294H267.531ZM206.757 255.358V256.83H207.487V255.358H206.757ZM267.531 257.208V255.751H266.802V257.208H267.531ZM206.757 258.302V259.774H207.487V258.302H206.757ZM267.531 260.123V258.666H266.802V260.123H267.531ZM206.757 261.246V262.718H207.487V261.246H206.757ZM267.531 263.038V261.58H266.802V263.038H267.531ZM206.757 264.191V265.663H207.487V264.191H206.757ZM267.531 265.952V264.495H266.802V265.952H267.531ZM206.757 267.135V268.607H207.487V267.135H206.757ZM267.531 268.867V267.409H266.802V268.867H267.531ZM206.757 270.079V271.551H207.487V270.079H206.757ZM267.531 271.781V270.324H266.802V271.781H267.531ZM206.757 273.023V274.495H207.487V273.023H206.757ZM267.531 274.696V273.238H266.802V274.696H267.531ZM206.757 275.967V277.44H207.487V275.967H206.757ZM267.531 277.61V276.153H266.802V277.61H267.531ZM206.757 278.912V280.384H207.487V278.912H206.757ZM267.531 280.525V279.068H266.802V280.525H267.531ZM206.757 281.856V283.328H207.487V281.856H206.757ZM267.531 283.439V281.982H266.802V283.439H267.531ZM206.757 284.8V286.272H207.487V284.8H206.757ZM267.531 286.354V284.897H266.802V286.354H267.531ZM206.757 287.744V289.216H207.487V287.744H206.757ZM267.531 289.268V287.811H266.802V289.268H267.531ZM206.757 290.689V292.161H207.487V290.689H206.757ZM267.531 292.183V290.726H266.802V292.183H267.531ZM206.757 293.633V294.369V294.734H207.122H207.837V294.004H207.487V293.633H206.757ZM267.531 294.369V293.64H266.802V294.004H266.452V294.734H267.166H267.531V294.369ZM209.267 294.734H210.696V294.004H209.267V294.734ZM212.126 294.734H213.555V294.004H212.126V294.734ZM214.985 294.734H216.415V294.004H214.985V294.734ZM217.844 294.734H219.274V294.004H217.844V294.734ZM220.704 294.734H222.133V294.004H220.704V294.734ZM223.563 294.734H224.992V294.004H223.563V294.734ZM226.422 294.734H227.852V294.004H226.422V294.734ZM229.281 294.734H230.711V294.004H229.281V294.734ZM232.141 294.734H233.57V294.004H232.141V294.734ZM235 294.734H236.429V294.004H235V294.734ZM237.859 294.734H239.289V294.004H237.859V294.734ZM240.718 294.734H242.148V294.004H240.718V294.734ZM243.578 294.734H245.007V294.004H243.578V294.734ZM246.437 294.734H247.866V294.004H246.437V294.734ZM249.296 294.734H250.726V294.004H249.296V294.734ZM252.155 294.734H253.585V294.004H252.155V294.734ZM255.015 294.734H256.444V294.004H255.015V294.734ZM257.874 294.734H259.303V294.004H257.874V294.734ZM260.733 294.734H262.163V294.004H260.733V294.734ZM263.592 294.734H265.022V294.004H263.592V294.734Z" fill="#000000" fill-opacity="0.18"/>
</svg>
